<mxfile host="app.diagrams.net" modified="2023-12-30T17:59:37.916Z" agent="Mozilla/5.0 (Windows NT 10.0; Win64; x64) AppleWebKit/537.36 (KHTML, like Gecko) Chrome/120.0.0.0 Safari/537.36" etag="NNJgQbEBW5KPEDkIG1Z0" version="22.1.16" type="github">
  <diagram name="Page-1" id="e7e014a7-5840-1c2e-5031-d8a46d1fe8dd">
    <mxGraphModel dx="1337" dy="774" grid="1" gridSize="10" guides="1" tooltips="1" connect="1" arrows="1" fold="1" page="1" pageScale="1" pageWidth="1169" pageHeight="826" background="none" math="0" shadow="0">
      <root>
        <mxCell id="0" />
        <mxCell id="1" parent="0" />
        <mxCell id="uhrMyxD7OXHliUuw1_D5-41" value="User" style="shape=umlActor;verticalLabelPosition=bottom;verticalAlign=top;html=1;outlineConnect=0;" vertex="1" parent="1">
          <mxGeometry x="140" y="190" width="30" height="60" as="geometry" />
        </mxCell>
        <mxCell id="uhrMyxD7OXHliUuw1_D5-42" value="Admin" style="shape=umlActor;verticalLabelPosition=bottom;verticalAlign=top;html=1;outlineConnect=0;" vertex="1" parent="1">
          <mxGeometry x="140" y="470" width="30" height="60" as="geometry" />
        </mxCell>
        <mxCell id="uhrMyxD7OXHliUuw1_D5-46" value="" style="rounded=0;whiteSpace=wrap;html=1;" vertex="1" parent="1">
          <mxGeometry x="270" y="100" width="360" height="700" as="geometry" />
        </mxCell>
        <mxCell id="uhrMyxD7OXHliUuw1_D5-47" value="Signup" style="ellipse;whiteSpace=wrap;html=1;" vertex="1" parent="1">
          <mxGeometry x="310" y="130" width="90" height="40" as="geometry" />
        </mxCell>
        <mxCell id="uhrMyxD7OXHliUuw1_D5-48" value="Login / Logout" style="ellipse;whiteSpace=wrap;html=1;" vertex="1" parent="1">
          <mxGeometry x="310" y="180" width="90" height="40" as="geometry" />
        </mxCell>
        <mxCell id="uhrMyxD7OXHliUuw1_D5-49" value="Your Profile" style="ellipse;whiteSpace=wrap;html=1;" vertex="1" parent="1">
          <mxGeometry x="310" y="230" width="90" height="40" as="geometry" />
        </mxCell>
        <mxCell id="uhrMyxD7OXHliUuw1_D5-50" value="Packages" style="ellipse;whiteSpace=wrap;html=1;" vertex="1" parent="1">
          <mxGeometry x="310" y="280" width="90" height="40" as="geometry" />
        </mxCell>
        <mxCell id="uhrMyxD7OXHliUuw1_D5-51" value="Hotels" style="ellipse;whiteSpace=wrap;html=1;" vertex="1" parent="1">
          <mxGeometry x="310" y="330" width="90" height="40" as="geometry" />
        </mxCell>
        <mxCell id="uhrMyxD7OXHliUuw1_D5-52" value="Booked Packages" style="ellipse;whiteSpace=wrap;html=1;" vertex="1" parent="1">
          <mxGeometry x="310" y="390" width="90" height="40" as="geometry" />
        </mxCell>
        <mxCell id="uhrMyxD7OXHliUuw1_D5-53" value="Booked Hotels" style="ellipse;whiteSpace=wrap;html=1;" vertex="1" parent="1">
          <mxGeometry x="310" y="460" width="90" height="40" as="geometry" />
        </mxCell>
        <mxCell id="uhrMyxD7OXHliUuw1_D5-58" value="Edit Profile" style="ellipse;whiteSpace=wrap;html=1;" vertex="1" parent="1">
          <mxGeometry x="495" y="230" width="90" height="40" as="geometry" />
        </mxCell>
        <mxCell id="uhrMyxD7OXHliUuw1_D5-59" value="View Profile" style="ellipse;whiteSpace=wrap;html=1;" vertex="1" parent="1">
          <mxGeometry x="495" y="160" width="90" height="40" as="geometry" />
        </mxCell>
        <mxCell id="uhrMyxD7OXHliUuw1_D5-61" value="&amp;lt;&amp;lt;include&amp;gt;&amp;gt;" style="html=1;verticalAlign=bottom;labelBackgroundColor=none;endArrow=open;endFill=0;dashed=1;rounded=0;entryX=0;entryY=0.5;entryDx=0;entryDy=0;" edge="1" parent="1" target="uhrMyxD7OXHliUuw1_D5-59">
          <mxGeometry width="160" relative="1" as="geometry">
            <mxPoint x="400" y="245" as="sourcePoint" />
            <mxPoint x="560" y="245" as="targetPoint" />
          </mxGeometry>
        </mxCell>
        <mxCell id="uhrMyxD7OXHliUuw1_D5-62" value="&amp;lt;&amp;lt;include&amp;gt;&amp;gt;" style="html=1;verticalAlign=bottom;labelBackgroundColor=none;endArrow=open;endFill=0;dashed=1;rounded=0;entryX=0;entryY=0.5;entryDx=0;entryDy=0;exitX=1;exitY=0.5;exitDx=0;exitDy=0;" edge="1" parent="1" source="uhrMyxD7OXHliUuw1_D5-49" target="uhrMyxD7OXHliUuw1_D5-58">
          <mxGeometry width="160" relative="1" as="geometry">
            <mxPoint x="400" y="240" as="sourcePoint" />
            <mxPoint x="500" y="210" as="targetPoint" />
          </mxGeometry>
        </mxCell>
        <mxCell id="uhrMyxD7OXHliUuw1_D5-63" value="View Packages" style="ellipse;whiteSpace=wrap;html=1;" vertex="1" parent="1">
          <mxGeometry x="495" y="280" width="90" height="40" as="geometry" />
        </mxCell>
        <mxCell id="uhrMyxD7OXHliUuw1_D5-64" value="&amp;lt;&amp;lt;include&amp;gt;&amp;gt;" style="html=1;verticalAlign=bottom;labelBackgroundColor=none;endArrow=open;endFill=0;dashed=1;rounded=0;entryX=0;entryY=0.5;entryDx=0;entryDy=0;exitX=1;exitY=0.5;exitDx=0;exitDy=0;" edge="1" parent="1" source="uhrMyxD7OXHliUuw1_D5-50" target="uhrMyxD7OXHliUuw1_D5-63">
          <mxGeometry width="160" relative="1" as="geometry">
            <mxPoint x="410" y="260" as="sourcePoint" />
            <mxPoint x="505" y="260" as="targetPoint" />
          </mxGeometry>
        </mxCell>
        <mxCell id="uhrMyxD7OXHliUuw1_D5-65" value="View Hotels" style="ellipse;whiteSpace=wrap;html=1;" vertex="1" parent="1">
          <mxGeometry x="495" y="330" width="90" height="40" as="geometry" />
        </mxCell>
        <mxCell id="uhrMyxD7OXHliUuw1_D5-66" value="&amp;lt;&amp;lt;include&amp;gt;&amp;gt;" style="html=1;verticalAlign=bottom;labelBackgroundColor=none;endArrow=open;endFill=0;dashed=1;rounded=0;entryX=0;entryY=0.5;entryDx=0;entryDy=0;exitX=1;exitY=0.5;exitDx=0;exitDy=0;" edge="1" parent="1" source="uhrMyxD7OXHliUuw1_D5-51" target="uhrMyxD7OXHliUuw1_D5-65">
          <mxGeometry width="160" relative="1" as="geometry">
            <mxPoint x="410" y="310" as="sourcePoint" />
            <mxPoint x="505" y="310" as="targetPoint" />
          </mxGeometry>
        </mxCell>
        <mxCell id="uhrMyxD7OXHliUuw1_D5-67" value="View Bookings" style="ellipse;whiteSpace=wrap;html=1;" vertex="1" parent="1">
          <mxGeometry x="495" y="380" width="90" height="40" as="geometry" />
        </mxCell>
        <mxCell id="uhrMyxD7OXHliUuw1_D5-68" value="Make Bookings" style="ellipse;whiteSpace=wrap;html=1;" vertex="1" parent="1">
          <mxGeometry x="495" y="430" width="90" height="40" as="geometry" />
        </mxCell>
        <mxCell id="uhrMyxD7OXHliUuw1_D5-69" value="&amp;lt;&amp;lt;include&amp;gt;&amp;gt;" style="html=1;verticalAlign=bottom;labelBackgroundColor=none;endArrow=open;endFill=0;dashed=1;rounded=0;entryX=0;entryY=0.5;entryDx=0;entryDy=0;exitX=1.004;exitY=0.36;exitDx=0;exitDy=0;exitPerimeter=0;" edge="1" parent="1" source="uhrMyxD7OXHliUuw1_D5-52" target="uhrMyxD7OXHliUuw1_D5-67">
          <mxGeometry width="160" relative="1" as="geometry">
            <mxPoint x="410" y="360" as="sourcePoint" />
            <mxPoint x="505" y="360" as="targetPoint" />
          </mxGeometry>
        </mxCell>
        <mxCell id="uhrMyxD7OXHliUuw1_D5-70" value="&amp;lt;&amp;lt;include&amp;gt;&amp;gt;" style="html=1;verticalAlign=bottom;labelBackgroundColor=none;endArrow=open;endFill=0;dashed=1;rounded=0;entryX=0;entryY=0.5;entryDx=0;entryDy=0;exitX=1;exitY=0.5;exitDx=0;exitDy=0;" edge="1" parent="1" source="uhrMyxD7OXHliUuw1_D5-52" target="uhrMyxD7OXHliUuw1_D5-68">
          <mxGeometry width="160" relative="1" as="geometry">
            <mxPoint x="410" y="424" as="sourcePoint" />
            <mxPoint x="505" y="410" as="targetPoint" />
          </mxGeometry>
        </mxCell>
        <mxCell id="uhrMyxD7OXHliUuw1_D5-73" value="&amp;lt;&amp;lt;include&amp;gt;&amp;gt;" style="html=1;verticalAlign=bottom;labelBackgroundColor=none;endArrow=open;endFill=0;dashed=1;rounded=0;entryX=0.03;entryY=0.659;entryDx=0;entryDy=0;exitX=1;exitY=0;exitDx=0;exitDy=0;entryPerimeter=0;" edge="1" parent="1" source="uhrMyxD7OXHliUuw1_D5-53" target="uhrMyxD7OXHliUuw1_D5-67">
          <mxGeometry width="160" relative="1" as="geometry">
            <mxPoint x="410" y="430" as="sourcePoint" />
            <mxPoint x="495" y="500" as="targetPoint" />
          </mxGeometry>
        </mxCell>
        <mxCell id="uhrMyxD7OXHliUuw1_D5-74" value="&amp;lt;&amp;lt;include&amp;gt;&amp;gt;" style="html=1;verticalAlign=bottom;labelBackgroundColor=none;endArrow=open;endFill=0;dashed=1;rounded=0;exitX=0.971;exitY=0.607;exitDx=0;exitDy=0;exitPerimeter=0;" edge="1" parent="1" source="uhrMyxD7OXHliUuw1_D5-53" target="uhrMyxD7OXHliUuw1_D5-68">
          <mxGeometry width="160" relative="1" as="geometry">
            <mxPoint x="397" y="506" as="sourcePoint" />
            <mxPoint x="503.19000000000005" y="539.6800000000001" as="targetPoint" />
          </mxGeometry>
        </mxCell>
        <mxCell id="uhrMyxD7OXHliUuw1_D5-75" value="" style="endArrow=none;dashed=1;html=1;rounded=0;exitX=0.5;exitY=0.5;exitDx=0;exitDy=0;exitPerimeter=0;entryX=0;entryY=0.5;entryDx=0;entryDy=0;" edge="1" parent="1" source="uhrMyxD7OXHliUuw1_D5-41" target="uhrMyxD7OXHliUuw1_D5-47">
          <mxGeometry width="50" height="50" relative="1" as="geometry">
            <mxPoint x="540" y="310" as="sourcePoint" />
            <mxPoint x="590" y="260" as="targetPoint" />
          </mxGeometry>
        </mxCell>
        <mxCell id="uhrMyxD7OXHliUuw1_D5-76" value="" style="endArrow=none;dashed=1;html=1;rounded=0;entryX=0;entryY=0.5;entryDx=0;entryDy=0;exitX=0.5;exitY=0.5;exitDx=0;exitDy=0;exitPerimeter=0;" edge="1" parent="1" source="uhrMyxD7OXHliUuw1_D5-41" target="uhrMyxD7OXHliUuw1_D5-48">
          <mxGeometry width="50" height="50" relative="1" as="geometry">
            <mxPoint x="185" y="230" as="sourcePoint" />
            <mxPoint x="320" y="160" as="targetPoint" />
          </mxGeometry>
        </mxCell>
        <mxCell id="uhrMyxD7OXHliUuw1_D5-77" value="" style="endArrow=none;dashed=1;html=1;rounded=0;entryX=0;entryY=0.5;entryDx=0;entryDy=0;" edge="1" parent="1" target="uhrMyxD7OXHliUuw1_D5-49">
          <mxGeometry width="50" height="50" relative="1" as="geometry">
            <mxPoint x="160" y="220" as="sourcePoint" />
            <mxPoint x="320" y="210" as="targetPoint" />
          </mxGeometry>
        </mxCell>
        <mxCell id="uhrMyxD7OXHliUuw1_D5-78" value="" style="endArrow=none;dashed=1;html=1;rounded=0;entryX=0;entryY=0.5;entryDx=0;entryDy=0;" edge="1" parent="1" target="uhrMyxD7OXHliUuw1_D5-50">
          <mxGeometry width="50" height="50" relative="1" as="geometry">
            <mxPoint x="160" y="220" as="sourcePoint" />
            <mxPoint x="320" y="260" as="targetPoint" />
          </mxGeometry>
        </mxCell>
        <mxCell id="uhrMyxD7OXHliUuw1_D5-79" value="" style="endArrow=none;dashed=1;html=1;rounded=0;entryX=0;entryY=0.5;entryDx=0;entryDy=0;" edge="1" parent="1" target="uhrMyxD7OXHliUuw1_D5-51">
          <mxGeometry width="50" height="50" relative="1" as="geometry">
            <mxPoint x="160" y="220" as="sourcePoint" />
            <mxPoint x="320" y="310" as="targetPoint" />
          </mxGeometry>
        </mxCell>
        <mxCell id="uhrMyxD7OXHliUuw1_D5-80" value="" style="endArrow=none;dashed=1;html=1;rounded=0;entryX=0.047;entryY=0.762;entryDx=0;entryDy=0;entryPerimeter=0;" edge="1" parent="1" target="uhrMyxD7OXHliUuw1_D5-52">
          <mxGeometry width="50" height="50" relative="1" as="geometry">
            <mxPoint x="160" y="220" as="sourcePoint" />
            <mxPoint x="320" y="360" as="targetPoint" />
          </mxGeometry>
        </mxCell>
        <mxCell id="uhrMyxD7OXHliUuw1_D5-81" value="" style="endArrow=none;dashed=1;html=1;rounded=0;entryX=0;entryY=0.5;entryDx=0;entryDy=0;exitX=0.5;exitY=0.5;exitDx=0;exitDy=0;exitPerimeter=0;" edge="1" parent="1" source="uhrMyxD7OXHliUuw1_D5-41" target="uhrMyxD7OXHliUuw1_D5-53">
          <mxGeometry width="50" height="50" relative="1" as="geometry">
            <mxPoint x="190" y="230" as="sourcePoint" />
            <mxPoint x="324" y="430" as="targetPoint" />
          </mxGeometry>
        </mxCell>
        <mxCell id="uhrMyxD7OXHliUuw1_D5-85" value="" style="endArrow=none;dashed=1;html=1;rounded=0;exitX=0.5;exitY=0.5;exitDx=0;exitDy=0;exitPerimeter=0;" edge="1" parent="1" source="uhrMyxD7OXHliUuw1_D5-42">
          <mxGeometry width="50" height="50" relative="1" as="geometry">
            <mxPoint x="165" y="230" as="sourcePoint" />
            <mxPoint x="310" y="200" as="targetPoint" />
          </mxGeometry>
        </mxCell>
        <mxCell id="uhrMyxD7OXHliUuw1_D5-86" value="" style="endArrow=none;dashed=1;html=1;rounded=0;entryX=0;entryY=0.5;entryDx=0;entryDy=0;exitX=0.5;exitY=0.5;exitDx=0;exitDy=0;exitPerimeter=0;" edge="1" parent="1" source="uhrMyxD7OXHliUuw1_D5-42" target="uhrMyxD7OXHliUuw1_D5-49">
          <mxGeometry width="50" height="50" relative="1" as="geometry">
            <mxPoint x="160" y="470" as="sourcePoint" />
            <mxPoint x="320" y="210" as="targetPoint" />
          </mxGeometry>
        </mxCell>
        <mxCell id="uhrMyxD7OXHliUuw1_D5-87" value="Manage Packages" style="ellipse;whiteSpace=wrap;html=1;" vertex="1" parent="1">
          <mxGeometry x="310" y="520" width="90" height="40" as="geometry" />
        </mxCell>
        <mxCell id="uhrMyxD7OXHliUuw1_D5-88" value="Manage Hotels" style="ellipse;whiteSpace=wrap;html=1;" vertex="1" parent="1">
          <mxGeometry x="310" y="620" width="90" height="40" as="geometry" />
        </mxCell>
        <mxCell id="uhrMyxD7OXHliUuw1_D5-89" value="View All Customers" style="ellipse;whiteSpace=wrap;html=1;" vertex="1" parent="1">
          <mxGeometry x="310" y="570" width="90" height="40" as="geometry" />
        </mxCell>
        <mxCell id="uhrMyxD7OXHliUuw1_D5-90" value="View Booked Packages" style="ellipse;whiteSpace=wrap;html=1;" vertex="1" parent="1">
          <mxGeometry x="310" y="670" width="90" height="40" as="geometry" />
        </mxCell>
        <mxCell id="uhrMyxD7OXHliUuw1_D5-91" value="View Booked Hotels" style="ellipse;whiteSpace=wrap;html=1;" vertex="1" parent="1">
          <mxGeometry x="310" y="720" width="90" height="40" as="geometry" />
        </mxCell>
        <mxCell id="uhrMyxD7OXHliUuw1_D5-92" value="View Packages" style="ellipse;whiteSpace=wrap;html=1;" vertex="1" parent="1">
          <mxGeometry x="495" y="520" width="90" height="40" as="geometry" />
        </mxCell>
        <mxCell id="uhrMyxD7OXHliUuw1_D5-93" value="Add Packages" style="ellipse;whiteSpace=wrap;html=1;" vertex="1" parent="1">
          <mxGeometry x="495" y="570" width="90" height="40" as="geometry" />
        </mxCell>
        <mxCell id="uhrMyxD7OXHliUuw1_D5-94" value="View Hotels" style="ellipse;whiteSpace=wrap;html=1;" vertex="1" parent="1">
          <mxGeometry x="495" y="620" width="90" height="40" as="geometry" />
        </mxCell>
        <mxCell id="uhrMyxD7OXHliUuw1_D5-95" value="Add Hotels" style="ellipse;whiteSpace=wrap;html=1;" vertex="1" parent="1">
          <mxGeometry x="495" y="680" width="90" height="40" as="geometry" />
        </mxCell>
        <mxCell id="uhrMyxD7OXHliUuw1_D5-99" value="" style="endArrow=none;dashed=1;html=1;rounded=0;entryX=0;entryY=0.5;entryDx=0;entryDy=0;exitX=0.5;exitY=0.5;exitDx=0;exitDy=0;exitPerimeter=0;" edge="1" parent="1" source="uhrMyxD7OXHliUuw1_D5-42" target="uhrMyxD7OXHliUuw1_D5-87">
          <mxGeometry width="50" height="50" relative="1" as="geometry">
            <mxPoint x="160" y="490" as="sourcePoint" />
            <mxPoint x="320" y="260" as="targetPoint" />
          </mxGeometry>
        </mxCell>
        <mxCell id="uhrMyxD7OXHliUuw1_D5-100" value="" style="endArrow=none;dashed=1;html=1;rounded=0;entryX=0;entryY=0.5;entryDx=0;entryDy=0;" edge="1" parent="1" target="uhrMyxD7OXHliUuw1_D5-89">
          <mxGeometry width="50" height="50" relative="1" as="geometry">
            <mxPoint x="155" y="500" as="sourcePoint" />
            <mxPoint x="320" y="550" as="targetPoint" />
          </mxGeometry>
        </mxCell>
        <mxCell id="uhrMyxD7OXHliUuw1_D5-101" value="" style="endArrow=none;dashed=1;html=1;rounded=0;entryX=0;entryY=0.5;entryDx=0;entryDy=0;exitX=0.5;exitY=0.5;exitDx=0;exitDy=0;exitPerimeter=0;" edge="1" parent="1" source="uhrMyxD7OXHliUuw1_D5-42" target="uhrMyxD7OXHliUuw1_D5-88">
          <mxGeometry width="50" height="50" relative="1" as="geometry">
            <mxPoint x="160" y="500" as="sourcePoint" />
            <mxPoint x="320" y="600" as="targetPoint" />
          </mxGeometry>
        </mxCell>
        <mxCell id="uhrMyxD7OXHliUuw1_D5-102" value="" style="endArrow=none;dashed=1;html=1;rounded=0;entryX=0.018;entryY=0.392;entryDx=0;entryDy=0;entryPerimeter=0;" edge="1" parent="1" target="uhrMyxD7OXHliUuw1_D5-90">
          <mxGeometry width="50" height="50" relative="1" as="geometry">
            <mxPoint x="155" y="500" as="sourcePoint" />
            <mxPoint x="320" y="650" as="targetPoint" />
          </mxGeometry>
        </mxCell>
        <mxCell id="uhrMyxD7OXHliUuw1_D5-103" value="" style="endArrow=none;dashed=1;html=1;rounded=0;entryX=0;entryY=0.5;entryDx=0;entryDy=0;exitX=0.5;exitY=0.5;exitDx=0;exitDy=0;exitPerimeter=0;" edge="1" parent="1" source="uhrMyxD7OXHliUuw1_D5-42" target="uhrMyxD7OXHliUuw1_D5-91">
          <mxGeometry width="50" height="50" relative="1" as="geometry">
            <mxPoint x="170" y="510" as="sourcePoint" />
            <mxPoint x="322" y="696" as="targetPoint" />
          </mxGeometry>
        </mxCell>
        <mxCell id="uhrMyxD7OXHliUuw1_D5-104" value="&amp;lt;&amp;lt;include&amp;gt;&amp;gt;" style="html=1;verticalAlign=bottom;labelBackgroundColor=none;endArrow=open;endFill=0;dashed=1;rounded=0;exitX=1;exitY=0.5;exitDx=0;exitDy=0;entryX=0;entryY=0.5;entryDx=0;entryDy=0;" edge="1" parent="1" source="uhrMyxD7OXHliUuw1_D5-87" target="uhrMyxD7OXHliUuw1_D5-92">
          <mxGeometry width="160" relative="1" as="geometry">
            <mxPoint x="407" y="494" as="sourcePoint" />
            <mxPoint x="510" y="469" as="targetPoint" />
          </mxGeometry>
        </mxCell>
        <mxCell id="uhrMyxD7OXHliUuw1_D5-105" value="&amp;lt;&amp;lt;include&amp;gt;&amp;gt;" style="html=1;verticalAlign=bottom;labelBackgroundColor=none;endArrow=open;endFill=0;dashed=1;rounded=0;exitX=1;exitY=0.5;exitDx=0;exitDy=0;entryX=0;entryY=0.5;entryDx=0;entryDy=0;" edge="1" parent="1" source="uhrMyxD7OXHliUuw1_D5-87" target="uhrMyxD7OXHliUuw1_D5-93">
          <mxGeometry width="160" relative="1" as="geometry">
            <mxPoint x="410" y="550" as="sourcePoint" />
            <mxPoint x="505" y="550" as="targetPoint" />
          </mxGeometry>
        </mxCell>
        <mxCell id="uhrMyxD7OXHliUuw1_D5-106" value="&amp;lt;&amp;lt;include&amp;gt;&amp;gt;" style="html=1;verticalAlign=bottom;labelBackgroundColor=none;endArrow=open;endFill=0;dashed=1;rounded=0;exitX=1;exitY=0.5;exitDx=0;exitDy=0;entryX=0.058;entryY=0.365;entryDx=0;entryDy=0;entryPerimeter=0;" edge="1" parent="1" source="uhrMyxD7OXHliUuw1_D5-88" target="uhrMyxD7OXHliUuw1_D5-94">
          <mxGeometry width="160" relative="1" as="geometry">
            <mxPoint x="410" y="550" as="sourcePoint" />
            <mxPoint x="505" y="600" as="targetPoint" />
          </mxGeometry>
        </mxCell>
        <mxCell id="uhrMyxD7OXHliUuw1_D5-107" value="&amp;lt;&amp;lt;include&amp;gt;&amp;gt;" style="html=1;verticalAlign=bottom;labelBackgroundColor=none;endArrow=open;endFill=0;dashed=1;rounded=0;entryX=0;entryY=0.5;entryDx=0;entryDy=0;" edge="1" parent="1" target="uhrMyxD7OXHliUuw1_D5-95">
          <mxGeometry width="160" relative="1" as="geometry">
            <mxPoint x="400" y="640" as="sourcePoint" />
            <mxPoint x="510" y="645" as="targetPoint" />
          </mxGeometry>
        </mxCell>
      </root>
    </mxGraphModel>
  </diagram>
</mxfile>
